{
 "cells": [
  {
   "cell_type": "code",
   "execution_count": 213,
   "metadata": {
    "collapsed": true
   },
   "outputs": [],
   "source": [
    "####\n",
    "# Filename:        genVideo.ipynb\n",
    "# Date:            Jan 02 2017\n",
    "# Last Edited by:  Gengshan Yang\n",
    "# Description:     Generate videos of detection, tracking and pose estimation\n",
    "#                  results. \n",
    "####\n",
    "\n",
    "import os\n",
    "import subprocess\n",
    "\n",
    "def mvRes(imgPath, imgList, subDirName):\n",
    "    \"\"\" move specified image results to given subfolder \"\"\"\n",
    "    dirName = os.path.join(imgPath, subDirName) \n",
    "    if os.path.exists(dirName):\n",
    "        return\n",
    "    else:\n",
    "        os.makedirs(dirName)\n",
    "        \n",
    "    imgList = sorted(imgList)\n",
    "    for it, name  in enumerate(imgList):\n",
    "        a = os.path.join(imgPath, name)\n",
    "        b = os.path.join(dirName, str(it).zfill(5) + \".jpg\")\n",
    "        os.rename(a, b)\n",
    "        \n",
    "def runFFMPEG(tbFilled):\n",
    "    \"\"\" concat specified frames to a video, and clean subfloder \"\"\"\n",
    "    if os.path.exists('data/' + tbFilled + '.mp4'):\n",
    "        return\n",
    "    \n",
    "    cmd = 'ffmpeg -f image2 -r 5 -i data/' + tbFilled + '/%05d.jpg -vcodec mpeg4 -y data/' + tbFilled + '.mp4'\n",
    "    a = subprocess.check_output(cmd, shell=True, stderr=subprocess.STDOUT)\n",
    "    print a\n",
    "    \n",
    "    \"\"\" remove image folder \"\"\"\n",
    "    cmd = 'rm -rf data/' + tbFilled\n",
    "    a = subprocess.check_output(cmd, shell=True, stderr=subprocess.STDOUT)\n",
    "    print a"
   ]
  },
  {
   "cell_type": "code",
   "execution_count": 214,
   "metadata": {
    "collapsed": true
   },
   "outputs": [],
   "source": [
    "imgPath = \"/data/gengshan/handProj/\"  # specify output frame path"
   ]
  },
  {
   "cell_type": "code",
   "execution_count": 215,
   "metadata": {
    "collapsed": false
   },
   "outputs": [],
   "source": [
    "\"\"\" get a list of image names \"\"\"\n",
    "imgList = os.listdir(imgPath)\n",
    "detList = [x for x in imgList if (\"det\" in x) ]\n",
    "trkList = [x for x in imgList if (\"trk\" in x) ]\n",
    "posList = [x for x in imgList if (\"pos\" in x) ]\n",
    "objPosList = {}\n",
    "objIDs = list(set([x.split('_')[1] for x in posList]))\n",
    "for ID in objIDs:\n",
    "    objPosList[ID] = [x for x in posList if x.split('_')[1] == ID]"
   ]
  },
  {
   "cell_type": "code",
   "execution_count": null,
   "metadata": {
    "collapsed": true
   },
   "outputs": [],
   "source": []
  },
  {
   "cell_type": "code",
   "execution_count": 216,
   "metadata": {
    "collapsed": false
   },
   "outputs": [],
   "source": [
    "mvRes(imgPath, detList, 'det')\n",
    "mvRes(imgPath, trkList, 'trk')\n",
    "for ID, val in objPosList.items():\n",
    "    mvRes(imgPath, val, 'pos_' + ID)"
   ]
  },
  {
   "cell_type": "code",
   "execution_count": 217,
   "metadata": {
    "collapsed": false
   },
   "outputs": [
    {
     "name": "stdout",
     "output_type": "stream",
     "text": [
      "ffmpeg version N-77182-gbd3409f Copyright (c) 2000-2015 the FFmpeg developers\n",
      "  built with gcc 4.8 (Ubuntu 4.8.4-2ubuntu1~14.04)\n",
      "  configuration: \n",
      "  libavutil      55. 10.100 / 55. 10.100\n",
      "  libavcodec     57. 17.100 / 57. 17.100\n",
      "  libavformat    57. 19.100 / 57. 19.100\n",
      "  libavdevice    57.  0.100 / 57.  0.100\n",
      "  libavfilter     6. 20.100 /  6. 20.100\n",
      "  libswscale      4.  0.100 /  4.  0.100\n",
      "  libswresample   2.  0.101 /  2.  0.101\n",
      "[mjpeg @ 0x1fbb9c0] Changing bps to 8\n",
      "Input #0, image2, from 'data/det/%05d.jpg':\n",
      "  Duration: 00:00:24.00, start: 0.000000, bitrate: N/A\n",
      "    Stream #0:0: Video: mjpeg, yuvj420p(pc, bt470bg/unknown/unknown), 320x240 [SAR 1:1 DAR 4:3], 5 fps, 5 tbr, 5 tbn, 5 tbc\n",
      "[swscaler @ 0x1fc0760] deprecated pixel format used, make sure you did set range correctly\n",
      "[mpeg4 @ 0x1fbd840] too many threads/slices (16), reducing to 15\n",
      "[mpeg @ 0x1fbc740] VBV buffer size not set, using default size of 130KB\n",
      "If you want the mpeg file to be compliant to some specification\n",
      "Like DVD, VCD or others, make sure you set the correct buffer size\n",
      "Output #0, mpeg, to 'data/det.mpg':\n",
      "  Metadata:\n",
      "    encoder         : Lavf57.19.100\n",
      "    Stream #0:0: Video: mpeg4, yuv420p, 320x240 [SAR 1:1 DAR 4:3], q=2-31, 200 kb/s, 5 fps, 90k tbn, 5 tbc\n",
      "    Metadata:\n",
      "      encoder         : Lavc57.17.100 mpeg4\n",
      "Stream mapping:\n",
      "  Stream #0:0 -> #0:0 (mjpeg (native) -> mpeg4 (native))\n",
      "Press [q] to stop, [?] for help\n",
      "frame=  120 fps=0.0 q=3.8 Lsize=     716kB time=00:00:24.00 bitrate= 244.4kbits/s    \n",
      "video:710kB audio:0kB subtitle:0kB other streams:0kB global headers:0kB muxing overhead: 0.806663%\n",
      "\n",
      "\n",
      "ffmpeg version N-77182-gbd3409f Copyright (c) 2000-2015 the FFmpeg developers\n",
      "  built with gcc 4.8 (Ubuntu 4.8.4-2ubuntu1~14.04)\n",
      "  configuration: \n",
      "  libavutil      55. 10.100 / 55. 10.100\n",
      "  libavcodec     57. 17.100 / 57. 17.100\n",
      "  libavformat    57. 19.100 / 57. 19.100\n",
      "  libavdevice    57.  0.100 / 57.  0.100\n",
      "  libavfilter     6. 20.100 /  6. 20.100\n",
      "  libswscale      4.  0.100 /  4.  0.100\n",
      "  libswresample   2.  0.101 /  2.  0.101\n",
      "[mjpeg @ 0x23819c0] Changing bps to 8\n",
      "Input #0, image2, from 'data/trk/%05d.jpg':\n",
      "  Duration: 00:00:22.40, start: 0.000000, bitrate: N/A\n",
      "    Stream #0:0: Video: mjpeg, yuvj420p(pc, bt470bg/unknown/unknown), 320x240 [SAR 1:1 DAR 4:3], 5 fps, 5 tbr, 5 tbn, 5 tbc\n",
      "[swscaler @ 0x2386920] deprecated pixel format used, make sure you did set range correctly\n",
      "[mpeg4 @ 0x23bd8e0] too many threads/slices (16), reducing to 15\n",
      "[mpeg @ 0x23bcc60] VBV buffer size not set, using default size of 130KB\n",
      "If you want the mpeg file to be compliant to some specification\n",
      "Like DVD, VCD or others, make sure you set the correct buffer size\n",
      "Output #0, mpeg, to 'data/trk.mpg':\n",
      "  Metadata:\n",
      "    encoder         : Lavf57.19.100\n",
      "    Stream #0:0: Video: mpeg4, yuv420p, 320x240 [SAR 1:1 DAR 4:3], q=2-31, 200 kb/s, 5 fps, 90k tbn, 5 tbc\n",
      "    Metadata:\n",
      "      encoder         : Lavc57.17.100 mpeg4\n",
      "Stream mapping:\n",
      "  Stream #0:0 -> #0:0 (mjpeg (native) -> mpeg4 (native))\n",
      "Press [q] to stop, [?] for help\n",
      "frame=  112 fps=0.0 q=3.2 Lsize=     712kB time=00:00:22.40 bitrate= 260.4kbits/s    \n",
      "video:708kB audio:0kB subtitle:0kB other streams:0kB global headers:0kB muxing overhead: 0.629236%\n",
      "\n",
      "\n",
      "ffmpeg version N-77182-gbd3409f Copyright (c) 2000-2015 the FFmpeg developers\n",
      "  built with gcc 4.8 (Ubuntu 4.8.4-2ubuntu1~14.04)\n",
      "  configuration: \n",
      "  libavutil      55. 10.100 / 55. 10.100\n",
      "  libavcodec     57. 17.100 / 57. 17.100\n",
      "  libavformat    57. 19.100 / 57. 19.100\n",
      "  libavdevice    57.  0.100 / 57.  0.100\n",
      "  libavfilter     6. 20.100 /  6. 20.100\n",
      "  libswscale      4.  0.100 /  4.  0.100\n",
      "  libswresample   2.  0.101 /  2.  0.101\n",
      "[mjpeg @ 0x1ca79c0] Changing bps to 8\n",
      "Input #0, image2, from 'data/pos_146/%05d.jpg':\n",
      "  Duration: 00:00:02.00, start: 0.000000, bitrate: N/A\n",
      "    Stream #0:0: Video: mjpeg, yuvj420p(pc, bt470bg/unknown/unknown), 320x240 [SAR 1:1 DAR 4:3], 5 fps, 5 tbr, 5 tbn, 5 tbc\n",
      "[swscaler @ 0x1cc10e0] deprecated pixel format used, make sure you did set range correctly\n",
      "[mpeg4 @ 0x1ca9620] too many threads/slices (16), reducing to 15\n",
      "[mpeg @ 0x1ca8740] VBV buffer size not set, using default size of 130KB\n",
      "If you want the mpeg file to be compliant to some specification\n",
      "Like DVD, VCD or others, make sure you set the correct buffer size\n",
      "Output #0, mpeg, to 'data/pos_146.mpg':\n",
      "  Metadata:\n",
      "    encoder         : Lavf57.19.100\n",
      "    Stream #0:0: Video: mpeg4, yuv420p, 320x240 [SAR 1:1 DAR 4:3], q=2-31, 200 kb/s, 5 fps, 90k tbn, 5 tbc\n",
      "    Metadata:\n",
      "      encoder         : Lavc57.17.100 mpeg4\n",
      "Stream mapping:\n",
      "  Stream #0:0 -> #0:0 (mjpeg (native) -> mpeg4 (native))\n",
      "Press [q] to stop, [?] for help\n",
      "frame=   10 fps=0.0 q=2.0 Lsize=      94kB time=00:00:02.00 bitrate= 385.0kbits/s    \n",
      "video:92kB audio:0kB subtitle:0kB other streams:0kB global headers:0kB muxing overhead: 2.635844%\n",
      "\n",
      "\n",
      "ffmpeg version N-77182-gbd3409f Copyright (c) 2000-2015 the FFmpeg developers\n",
      "  built with gcc 4.8 (Ubuntu 4.8.4-2ubuntu1~14.04)\n",
      "  configuration: \n",
      "  libavutil      55. 10.100 / 55. 10.100\n",
      "  libavcodec     57. 17.100 / 57. 17.100\n",
      "  libavformat    57. 19.100 / 57. 19.100\n",
      "  libavdevice    57.  0.100 / 57.  0.100\n",
      "  libavfilter     6. 20.100 /  6. 20.100\n",
      "  libswscale      4.  0.100 /  4.  0.100\n",
      "  libswresample   2.  0.101 /  2.  0.101\n",
      "[mjpeg @ 0x3a649c0] Changing bps to 8\n",
      "Input #0, image2, from 'data/pos_21/%05d.jpg':\n",
      "  Duration: 00:00:03.20, start: 0.000000, bitrate: N/A\n",
      "    Stream #0:0: Video: mjpeg, yuvj420p(pc, bt470bg/unknown/unknown), 320x240 [SAR 1:1 DAR 4:3], 5 fps, 5 tbr, 5 tbn, 5 tbc\n",
      "[swscaler @ 0x3a68a60] deprecated pixel format used, make sure you did set range correctly\n",
      "[mpeg4 @ 0x3a67580] too many threads/slices (16), reducing to 15\n",
      "[mpeg @ 0x3a66900] VBV buffer size not set, using default size of 130KB\n",
      "If you want the mpeg file to be compliant to some specification\n",
      "Like DVD, VCD or others, make sure you set the correct buffer size\n",
      "Output #0, mpeg, to 'data/pos_21.mpg':\n",
      "  Metadata:\n",
      "    encoder         : Lavf57.19.100\n",
      "    Stream #0:0: Video: mpeg4, yuv420p, 320x240 [SAR 1:1 DAR 4:3], q=2-31, 200 kb/s, 5 fps, 90k tbn, 5 tbc\n",
      "    Metadata:\n",
      "      encoder         : Lavc57.17.100 mpeg4\n",
      "Stream mapping:\n",
      "  Stream #0:0 -> #0:0 (mjpeg (native) -> mpeg4 (native))\n",
      "Press [q] to stop, [?] for help\n",
      "frame=   16 fps=0.0 q=2.4 Lsize=     150kB time=00:00:03.20 bitrate= 384.0kbits/s    \n",
      "video:149kB audio:0kB subtitle:0kB other streams:0kB global headers:0kB muxing overhead: 0.931779%\n",
      "\n",
      "\n",
      "ffmpeg version N-77182-gbd3409f Copyright (c) 2000-2015 the FFmpeg developers\n",
      "  built with gcc 4.8 (Ubuntu 4.8.4-2ubuntu1~14.04)\n",
      "  configuration: \n",
      "  libavutil      55. 10.100 / 55. 10.100\n",
      "  libavcodec     57. 17.100 / 57. 17.100\n",
      "  libavformat    57. 19.100 / 57. 19.100\n",
      "  libavdevice    57.  0.100 / 57.  0.100\n",
      "  libavfilter     6. 20.100 /  6. 20.100\n",
      "  libswscale      4.  0.100 /  4.  0.100\n",
      "  libswresample   2.  0.101 /  2.  0.101\n",
      "[mjpeg @ 0x23149c0] Changing bps to 8\n",
      "Input #0, image2, from 'data/pos_18/%05d.jpg':\n",
      "  Duration: 00:00:02.00, start: 0.000000, bitrate: N/A\n",
      "    Stream #0:0: Video: mjpeg, yuvj420p(pc, bt470bg/unknown/unknown), 320x240 [SAR 1:1 DAR 4:3], 5 fps, 5 tbr, 5 tbn, 5 tbc\n",
      "[swscaler @ 0x231c680] deprecated pixel format used, make sure you did set range correctly\n",
      "[mpeg4 @ 0x2316620] too many threads/slices (16), reducing to 15\n",
      "[mpeg @ 0x2315740] VBV buffer size not set, using default size of 130KB\n",
      "If you want the mpeg file to be compliant to some specification\n",
      "Like DVD, VCD or others, make sure you set the correct buffer size\n",
      "Output #0, mpeg, to 'data/pos_18.mpg':\n",
      "  Metadata:\n",
      "    encoder         : Lavf57.19.100\n",
      "    Stream #0:0: Video: mpeg4, yuv420p, 320x240 [SAR 1:1 DAR 4:3], q=2-31, 200 kb/s, 5 fps, 90k tbn, 5 tbc\n",
      "    Metadata:\n",
      "      encoder         : Lavc57.17.100 mpeg4\n",
      "Stream mapping:\n",
      "  Stream #0:0 -> #0:0 (mjpeg (native) -> mpeg4 (native))\n",
      "Press [q] to stop, [?] for help\n",
      "frame=   10 fps=0.0 q=2.0 Lsize=      88kB time=00:00:02.00 bitrate= 360.4kbits/s    \n",
      "video:86kB audio:0kB subtitle:0kB other streams:0kB global headers:0kB muxing overhead: 2.774895%\n",
      "\n",
      "\n",
      "ffmpeg version N-77182-gbd3409f Copyright (c) 2000-2015 the FFmpeg developers\n",
      "  built with gcc 4.8 (Ubuntu 4.8.4-2ubuntu1~14.04)\n",
      "  configuration: \n",
      "  libavutil      55. 10.100 / 55. 10.100\n",
      "  libavcodec     57. 17.100 / 57. 17.100\n",
      "  libavformat    57. 19.100 / 57. 19.100\n",
      "  libavdevice    57.  0.100 / 57.  0.100\n",
      "  libavfilter     6. 20.100 /  6. 20.100\n",
      "  libswscale      4.  0.100 /  4.  0.100\n",
      "  libswresample   2.  0.101 /  2.  0.101\n",
      "[mjpeg @ 0x30069c0] Changing bps to 8\n",
      "Input #0, image2, from 'data/pos_0/%05d.jpg':\n",
      "  Duration: 00:00:23.40, start: 0.000000, bitrate: N/A\n",
      "    Stream #0:0: Video: mjpeg, yuvj420p(pc, bt470bg/unknown/unknown), 320x240 [SAR 1:1 DAR 4:3], 5 fps, 5 tbr, 5 tbn, 5 tbc\n",
      "[swscaler @ 0x3008dc0] deprecated pixel format used, make sure you did set range correctly\n",
      "[mpeg4 @ 0x3062dc0] too many threads/slices (16), reducing to 15\n",
      "[mpeg @ 0x3062140] VBV buffer size not set, using default size of 130KB\n",
      "If you want the mpeg file to be compliant to some specification\n",
      "Like DVD, VCD or others, make sure you set the correct buffer size\n",
      "Output #0, mpeg, to 'data/pos_0.mpg':\n",
      "  Metadata:\n",
      "    encoder         : Lavf57.19.100\n",
      "    Stream #0:0: Video: mpeg4, yuv420p, 320x240 [SAR 1:1 DAR 4:3], q=2-31, 200 kb/s, 5 fps, 90k tbn, 5 tbc\n",
      "    Metadata:\n",
      "      encoder         : Lavc57.17.100 mpeg4\n",
      "Stream mapping:\n",
      "  Stream #0:0 -> #0:0 (mjpeg (native) -> mpeg4 (native))\n",
      "Press [q] to stop, [?] for help\n",
      "frame=  117 fps=0.0 q=3.3 Lsize=     710kB time=00:00:23.40 bitrate= 248.6kbits/s    \n",
      "video:705kB audio:0kB subtitle:0kB other streams:0kB global headers:0kB muxing overhead: 0.750669%\n",
      "\n",
      "\n",
      "ffmpeg version N-77182-gbd3409f Copyright (c) 2000-2015 the FFmpeg developers\n",
      "  built with gcc 4.8 (Ubuntu 4.8.4-2ubuntu1~14.04)\n",
      "  configuration: \n",
      "  libavutil      55. 10.100 / 55. 10.100\n",
      "  libavcodec     57. 17.100 / 57. 17.100\n",
      "  libavformat    57. 19.100 / 57. 19.100\n",
      "  libavdevice    57.  0.100 / 57.  0.100\n",
      "  libavfilter     6. 20.100 /  6. 20.100\n",
      "  libswscale      4.  0.100 /  4.  0.100\n",
      "  libswresample   2.  0.101 /  2.  0.101\n",
      "[mjpeg @ 0x1e6d9c0] Changing bps to 8\n",
      "Input #0, image2, from 'data/pos_125/%05d.jpg':\n",
      "  Duration: 00:00:02.00, start: 0.000000, bitrate: N/A\n",
      "    Stream #0:0: Video: mjpeg, yuvj420p(pc, bt470bg/unknown/unknown), 320x240 [SAR 1:1 DAR 4:3], 5 fps, 5 tbr, 5 tbn, 5 tbc\n",
      "[swscaler @ 0x1e86d00] deprecated pixel format used, make sure you did set range correctly\n",
      "[mpeg4 @ 0x1e6f620] too many threads/slices (16), reducing to 15\n",
      "[mpeg @ 0x1e6e740] VBV buffer size not set, using default size of 130KB\n",
      "If you want the mpeg file to be compliant to some specification\n",
      "Like DVD, VCD or others, make sure you set the correct buffer size\n",
      "Output #0, mpeg, to 'data/pos_125.mpg':\n",
      "  Metadata:\n",
      "    encoder         : Lavf57.19.100\n",
      "    Stream #0:0: Video: mpeg4, yuv420p, 320x240 [SAR 1:1 DAR 4:3], q=2-31, 200 kb/s, 5 fps, 90k tbn, 5 tbc\n",
      "    Metadata:\n",
      "      encoder         : Lavc57.17.100 mpeg4\n",
      "Stream mapping:\n",
      "  Stream #0:0 -> #0:0 (mjpeg (native) -> mpeg4 (native))\n",
      "Press [q] to stop, [?] for help\n",
      "frame=   10 fps=0.0 q=2.0 Lsize=      94kB time=00:00:02.00 bitrate= 385.0kbits/s    \n",
      "video:92kB audio:0kB subtitle:0kB other streams:0kB global headers:0kB muxing overhead: 1.975824%\n",
      "\n",
      "\n",
      "ffmpeg version N-77182-gbd3409f Copyright (c) 2000-2015 the FFmpeg developers\n",
      "  built with gcc 4.8 (Ubuntu 4.8.4-2ubuntu1~14.04)\n",
      "  configuration: \n",
      "  libavutil      55. 10.100 / 55. 10.100\n",
      "  libavcodec     57. 17.100 / 57. 17.100\n",
      "  libavformat    57. 19.100 / 57. 19.100\n",
      "  libavdevice    57.  0.100 / 57.  0.100\n",
      "  libavfilter     6. 20.100 /  6. 20.100\n",
      "  libswscale      4.  0.100 /  4.  0.100\n",
      "  libswresample   2.  0.101 /  2.  0.101\n",
      "[mjpeg @ 0x339b9c0] Changing bps to 8\n",
      "Input #0, image2, from 'data/pos_69/%05d.jpg':\n",
      "  Duration: 00:00:01.80, start: 0.000000, bitrate: N/A\n",
      "    Stream #0:0: Video: mjpeg, yuvj420p(pc, bt470bg/unknown/unknown), 320x240 [SAR 1:1 DAR 4:3], 5 fps, 5 tbr, 5 tbn, 5 tbc\n",
      "[swscaler @ 0x33b4c80] deprecated pixel format used, make sure you did set range correctly\n",
      "[mpeg4 @ 0x33a2880] too many threads/slices (16), reducing to 15\n",
      "[mpeg @ 0x33a1780] VBV buffer size not set, using default size of 130KB\n",
      "If you want the mpeg file to be compliant to some specification\n",
      "Like DVD, VCD or others, make sure you set the correct buffer size\n",
      "Output #0, mpeg, to 'data/pos_69.mpg':\n",
      "  Metadata:\n",
      "    encoder         : Lavf57.19.100\n",
      "    Stream #0:0: Video: mpeg4, yuv420p, 320x240 [SAR 1:1 DAR 4:3], q=2-31, 200 kb/s, 5 fps, 90k tbn, 5 tbc\n",
      "    Metadata:\n",
      "      encoder         : Lavc57.17.100 mpeg4\n",
      "Stream mapping:\n",
      "  Stream #0:0 -> #0:0 (mjpeg (native) -> mpeg4 (native))\n",
      "Press [q] to stop, [?] for help\n",
      "frame=    9 fps=0.0 q=2.0 Lsize=      70kB time=00:00:01.80 bitrate= 318.6kbits/s    \n",
      "video:68kB audio:0kB subtitle:0kB other streams:0kB global headers:0kB muxing overhead: 2.419021%\n",
      "\n",
      "\n"
     ]
    }
   ],
   "source": [
    "runFFMPEG('det')\n",
    "runFFMPEG('trk')\n",
    "for ID, val in objPosList.items():\n",
    "    runFFMPEG('pos_' + ID)"
   ]
  },
  {
   "cell_type": "code",
   "execution_count": null,
   "metadata": {
    "collapsed": true
   },
   "outputs": [],
   "source": []
  }
 ],
 "metadata": {
  "kernelspec": {
   "display_name": "Python 2",
   "language": "python",
   "name": "python2"
  },
  "language_info": {
   "codemirror_mode": {
    "name": "ipython",
    "version": 2
   },
   "file_extension": ".py",
   "mimetype": "text/x-python",
   "name": "python",
   "nbconvert_exporter": "python",
   "pygments_lexer": "ipython2",
   "version": "2.7.6"
  }
 },
 "nbformat": 4,
 "nbformat_minor": 1
}
